<?xml version="1.0" encoding="UTF-8" standalone="no"?>
<!-- Created with Inkscape (http://www.inkscape.org/) -->

<svg
   xmlns:dc="http://purl.org/dc/elements/1.1/"
   xmlns:cc="http://creativecommons.org/ns#"
   xmlns:rdf="http://www.w3.org/1999/02/22-rdf-syntax-ns#"
   xmlns:svg="http://www.w3.org/2000/svg"
   xmlns="http://www.w3.org/2000/svg"
   xmlns:xlink="http://www.w3.org/1999/xlink"
   xmlns:sodipodi="http://sodipodi.sourceforge.net/DTD/sodipodi-0.dtd"
   xmlns:inkscape="http://www.inkscape.org/namespaces/inkscape"
   width="8889"
   height="5097"
   viewBox="0 0 8889 5096.9999"
   id="svg2"
   version="1.1"
   inkscape:version="0.91 r13725"
   sodipodi:docname="noe_04.svg">
  <defs
     id="defs4" />
  <sodipodi:namedview
     id="base"
     pagecolor="#ffffff"
     bordercolor="#666666"
     borderopacity="1.0"
     inkscape:pageopacity="0.0"
     inkscape:pageshadow="2"
     inkscape:zoom="0.12374369"
     inkscape:cx="4242.0975"
     inkscape:cy="3177.5171"
     inkscape:document-units="px"
     inkscape:current-layer="layer2"
     showgrid="false"
     inkscape:window-width="1816"
     inkscape:window-height="1057"
     inkscape:window-x="96"
     inkscape:window-y="-8"
     inkscape:window-maximized="1"
     fit-margin-top="0"
     fit-margin-left="0"
     fit-margin-right="0"
     fit-margin-bottom="0"
     units="px"
     inkscape:showpageshadow="false" />
  <metadata
     id="metadata7">
    <rdf:RDF>
      <cc:Work
         rdf:about="">
        <dc:format>image/svg+xml</dc:format>
        <dc:type
           rdf:resource="http://purl.org/dc/dcmitype/StillImage" />
        <dc:title></dc:title>
      </cc:Work>
    </rdf:RDF>
  </metadata>
  <g
     inkscape:label="Origin"
     inkscape:groupmode="layer"
     id="layer1"
     transform="translate(6453.6504,730.92792)"
     sodipodi:insensitive="true"
     style="display:inline">
    <image
       sodipodi:absref="D:\mongolrgata-junkbox\noe-svg\sources\noe_04.png"
       xlink:href="sources\noe_04.png"
       width="8889"
       height="5097"
       preserveAspectRatio="none"
       style="image-rendering:optimizeQuality"
       id="image4143"
       x="-6453.6504"
       y="-730.92792" />
  </g>
  <g
     inkscape:groupmode="layer"
     id="layer2"
     inkscape:label="Edge"
     transform="translate(1485.1725,-1170.9669)"
     style="display:inline">
    <path
       style="color:#000000;clip-rule:nonzero;display:inline;overflow:visible;visibility:visible;opacity:1;isolation:auto;mix-blend-mode:normal;color-interpolation:sRGB;color-interpolation-filters:linearRGB;solid-color:#000000;solid-opacity:1;fill:none;fill-opacity:1;fill-rule:evenodd;stroke:#000000;stroke-width:10;stroke-linecap:butt;stroke-linejoin:miter;stroke-miterlimit:4;stroke-dasharray:none;stroke-dashoffset:0;stroke-opacity:1;color-rendering:auto;image-rendering:auto;shape-rendering:auto;text-rendering:auto;enable-background:accumulate"
       d="m 4699.1131,6289.3955 c 0,0 -42.5583,-198.2053 -70.8426,-418.4185 -28.2842,-220.2133 -26.2639,-394.9697 24.2437,-459.6194 50.5076,-64.6498 251.528,-166.6752 553.5636,-197.9899 302.0356,-31.3148 607.3209,-6.8293 883.0352,68.8849 275.7143,75.7143 482.8572,184.2857 584.2857,301.4286 101.4286,117.1429 201.4286,315.7143 278.5714,471.4286 77.1429,155.7142 124.2858,308.5714 124.2858,308.5714"
       id="path4148"
       inkscape:connector-curvature="0" />
    <path
       style="color:#000000;clip-rule:nonzero;display:inline;overflow:visible;visibility:visible;opacity:1;isolation:auto;mix-blend-mode:normal;color-interpolation:sRGB;color-interpolation-filters:linearRGB;solid-color:#000000;solid-opacity:1;fill:none;fill-opacity:1;fill-rule:evenodd;stroke:#000000;stroke-width:10;stroke-linecap:butt;stroke-linejoin:miter;stroke-miterlimit:4;stroke-dasharray:none;stroke-dashoffset:0;stroke-opacity:1;color-rendering:auto;image-rendering:auto;shape-rendering:auto;text-rendering:auto;enable-background:accumulate"
       d="m 4666.1513,6288.675 c 0,0 -32.7525,-187.851 -64.1811,-400.7081 -31.4286,-212.8571 -63.6032,-376.6042 14.1785,-501.8631 77.7818,-125.259 399.0103,-253.5483 737.4114,-251.528 338.401,2.0203 804.1243,54.8197 1099.8386,214.8197 295.7143,160 382.8572,318.5714 490,508.5714 107.1429,190 218.5714,458.5714 218.5714,458.5714"
       id="path4150"
       inkscape:connector-curvature="0" />
    <path
       style="color:#000000;clip-rule:nonzero;display:inline;overflow:visible;visibility:visible;opacity:1;isolation:auto;mix-blend-mode:normal;color-interpolation:sRGB;color-interpolation-filters:linearRGB;solid-color:#000000;solid-opacity:1;fill:none;fill-opacity:1;fill-rule:evenodd;stroke:#000000;stroke-width:10;stroke-linecap:butt;stroke-linejoin:miter;stroke-miterlimit:4;stroke-dasharray:none;stroke-dashoffset:0;stroke-opacity:1;color-rendering:auto;image-rendering:auto;shape-rendering:auto;text-rendering:auto;enable-background:accumulate"
       d="m 4808.3988,6277.9669 c 0,0 -20,-87.1429 -35,-287.1429 -15,-199.9999 -26.9404,-308.7456 12.4555,-368.3446 39.396,-59.599 215.6676,-82.3274 330.3199,-89.3985 114.6523,-7.071 381.8377,-21.7182 659.6296,-9.5964 277.792,12.1218 434.0235,39.4824 624.0235,68.0538 190,28.5715 355,102.1429 355,102.1429"
       id="path4154"
       inkscape:connector-curvature="0" />
    <path
       style="color:#000000;clip-rule:nonzero;display:inline;overflow:visible;visibility:visible;opacity:1;isolation:auto;mix-blend-mode:normal;color-interpolation:sRGB;color-interpolation-filters:linearRGB;solid-color:#000000;solid-opacity:1;fill:none;fill-opacity:1;fill-rule:evenodd;stroke:#000000;stroke-width:10;stroke-linecap:butt;stroke-linejoin:miter;stroke-miterlimit:4;stroke-dasharray:none;stroke-dashoffset:0;stroke-opacity:1;color-rendering:auto;image-rendering:auto;shape-rendering:auto;text-rendering:auto;enable-background:accumulate"
       d="m 7331.9701,6319.3955 c 0,0 -87.4045,-128.2002 -194.4807,-269.6215 -107.0762,-141.4214 -148.0192,-189.6642 -180.5192,-241.8071 -32.5,-52.1428 -62.8572,-86.7857 -98.5715,-131.7857 -35.7143,-45 -125.0037,-122.7092 -125.0037,-122.7092"
       id="path4156"
       inkscape:connector-curvature="0"
       sodipodi:nodetypes="csssc" />
    <path
       style="color:#000000;clip-rule:nonzero;display:inline;overflow:visible;visibility:visible;opacity:1;isolation:auto;mix-blend-mode:normal;color-interpolation:sRGB;color-interpolation-filters:linearRGB;solid-color:#000000;solid-opacity:1;fill:none;fill-opacity:1;fill-rule:evenodd;stroke:#000000;stroke-width:10;stroke-linecap:butt;stroke-linejoin:miter;stroke-miterlimit:4;stroke-dasharray:none;stroke-dashoffset:0;stroke-opacity:1;color-rendering:auto;image-rendering:auto;shape-rendering:auto;text-rendering:auto;enable-background:accumulate"
       d="m 3392.854,5999.7714 c 0,0 -62.6294,102.5305 -106.5711,164.1498 -43.9416,61.6193 -101.0152,138.3909 -101.0152,138.3909"
       id="path4158"
       inkscape:connector-curvature="0" />
    <path
       style="color:#000000;clip-rule:nonzero;display:inline;overflow:visible;visibility:visible;opacity:1;isolation:auto;mix-blend-mode:normal;color-interpolation:sRGB;color-interpolation-filters:linearRGB;solid-color:#000000;solid-opacity:1;fill:none;fill-opacity:1;fill-rule:evenodd;stroke:#000000;stroke-width:10;stroke-linecap:butt;stroke-linejoin:miter;stroke-miterlimit:4;stroke-dasharray:none;stroke-dashoffset:0;stroke-opacity:1;color-rendering:auto;image-rendering:auto;shape-rendering:auto;text-rendering:auto;enable-background:accumulate"
       d="m 3738.3262,5290.6443 c 0,0 162.6345,137.8859 230.3148,210.6168 67.6802,72.731 132.3299,157.5838 132.3299,157.5838"
       id="path4160"
       inkscape:connector-curvature="0" />
    <path
       style="color:#000000;clip-rule:nonzero;display:inline;overflow:visible;visibility:visible;opacity:1;isolation:auto;mix-blend-mode:normal;color-interpolation:sRGB;color-interpolation-filters:linearRGB;solid-color:#000000;solid-opacity:1;fill:none;fill-opacity:1;fill-rule:evenodd;stroke:#000000;stroke-width:10;stroke-linecap:butt;stroke-linejoin:miter;stroke-miterlimit:4;stroke-dasharray:none;stroke-dashoffset:0;stroke-opacity:1;color-rendering:auto;image-rendering:auto;shape-rendering:auto;text-rendering:auto;enable-background:accumulate"
       d="m 4139.3567,5698.2409 c 0,0 64.6498,90.9137 103.0356,155.5635 38.3858,64.6497 63.6396,114.1472 80.8122,154.5533 17.1726,40.4061 122.2284,274.7615 122.2284,274.7615"
       id="path4162"
       inkscape:connector-curvature="0" />
    <path
       style="color:#000000;clip-rule:nonzero;display:inline;overflow:visible;visibility:visible;opacity:1;isolation:auto;mix-blend-mode:normal;color-interpolation:sRGB;color-interpolation-filters:linearRGB;solid-color:#000000;solid-opacity:1;fill:none;fill-opacity:1;fill-rule:evenodd;stroke:#000000;stroke-width:10;stroke-linecap:butt;stroke-linejoin:miter;stroke-miterlimit:4;stroke-dasharray:none;stroke-dashoffset:0;stroke-opacity:1;color-rendering:auto;image-rendering:auto;shape-rendering:auto;text-rendering:auto;enable-background:accumulate"
       d="m 2209.9654,6310.3933 c 0,0 57.5787,-172.7361 197.9899,-383.858 140.4112,-211.1218 275.7716,-358.6041 462.6499,-509.1168 186.8782,-150.5127 355.5736,-194.9595 468.7107,-200.0102 113.1371,-5.0508 345.4722,-17.1726 628.3149,73.7411 282.8427,90.9137 410.0537,204.6747 483.6251,261.8175 73.5715,57.1429 120,110 120,110"
       id="path4164"
       inkscape:connector-curvature="0" />
    <path
       style="color:#000000;clip-rule:nonzero;display:inline;overflow:visible;visibility:visible;opacity:1;isolation:auto;mix-blend-mode:normal;color-interpolation:sRGB;color-interpolation-filters:linearRGB;solid-color:#000000;solid-opacity:1;fill:none;fill-opacity:1;fill-rule:evenodd;stroke:#000000;stroke-width:10;stroke-linecap:butt;stroke-linejoin:miter;stroke-miterlimit:4;stroke-dasharray:none;stroke-dashoffset:0;stroke-opacity:1;color-rendering:auto;image-rendering:auto;shape-rendering:auto;text-rendering:auto;enable-background:accumulate"
       d="M 6048.1934 3918.9931 C 6053.8075 3925.665 6059.1964 3931.9773 6064.2856 3937.7143 C 6103.5713 3982 6212.1427 4113.4286 6212.1427 4113.4286 "
       id="path4226"
       transform="translate(-1485.1725,1170.9669)" />
    <path
       style="color:#000000;clip-rule:nonzero;display:inline;overflow:visible;visibility:visible;opacity:1;isolation:auto;mix-blend-mode:normal;color-interpolation:sRGB;color-interpolation-filters:linearRGB;solid-color:#000000;solid-opacity:1;fill:none;fill-opacity:1;fill-rule:evenodd;stroke:#000000;stroke-width:10;stroke-linecap:butt;stroke-linejoin:miter;stroke-miterlimit:4;stroke-dasharray:none;stroke-dashoffset:0;stroke-opacity:1;color-rendering:auto;image-rendering:auto;shape-rendering:auto;text-rendering:auto;enable-background:accumulate"
       d="m 5859.6147,3798.8489 c 28.6898,-2.6098 53.012,-2.4019 67.528,2.4368 28.7568,9.5857 66.0251,51.8819 99.0926,91.3367"
       id="path4216"
       transform="translate(-1485.1725,1170.9669)"
       inkscape:connector-curvature="0"
       sodipodi:nodetypes="csc" />
    <path
       style="color:#000000;clip-rule:nonzero;display:inline;overflow:visible;visibility:visible;opacity:1;isolation:auto;mix-blend-mode:normal;color-interpolation:sRGB;color-interpolation-filters:linearRGB;solid-color:#000000;solid-opacity:1;fill:none;fill-opacity:1;fill-rule:evenodd;stroke:#000000;stroke-width:10;stroke-linecap:butt;stroke-linejoin:miter;stroke-miterlimit:4;stroke-dasharray:none;stroke-dashoffset:0;stroke-opacity:1;color-rendering:auto;image-rendering:auto;shape-rendering:auto;text-rendering:auto;enable-background:accumulate"
       d="M 5697.1264 3828.9486 C 5716.4175 3824.0476 5738.3271 3818.9583 5760.9169 3814.3271 "
       id="path4210"
       transform="translate(-1485.1725,1170.9669)" />
    <path
       style="color:#000000;clip-rule:nonzero;display:inline;overflow:visible;visibility:visible;opacity:1;isolation:auto;mix-blend-mode:normal;color-interpolation:sRGB;color-interpolation-filters:linearRGB;solid-color:#000000;solid-opacity:1;fill:none;fill-opacity:1;fill-rule:evenodd;stroke:#000000;stroke-width:10;stroke-linecap:butt;stroke-linejoin:miter;stroke-miterlimit:4;stroke-dasharray:none;stroke-dashoffset:0;stroke-opacity:1;color-rendering:auto;image-rendering:auto;shape-rendering:auto;text-rendering:auto;enable-background:accumulate"
       d="M 5160.7142 4053.4286 C 5160.7142 4053.4286 5167.857 4037.7143 5288.5713 3979.8572 C 5336.6124 3956.8316 5398.6818 3931.4302 5460.7321 3907.9753 "
       id="path4166"
       transform="translate(-1485.1725,1170.9669)" />
    <path
       style="color:#000000;clip-rule:nonzero;display:inline;overflow:visible;visibility:visible;opacity:1;isolation:auto;mix-blend-mode:normal;color-interpolation:sRGB;color-interpolation-filters:linearRGB;solid-color:#000000;solid-opacity:1;fill:none;fill-opacity:1;fill-rule:evenodd;stroke:#000000;stroke-width:10;stroke-linecap:butt;stroke-linejoin:miter;stroke-miterlimit:4;stroke-dasharray:none;stroke-dashoffset:0;stroke-opacity:1;color-rendering:auto;image-rendering:auto;shape-rendering:auto;text-rendering:auto;enable-background:accumulate"
       d="m 1592.6846,4127.967 c 0,0 59.2857,-51.4286 129.2857,-91.4286 70,-40 153.5714,-76.4286 153.5714,-76.4286"
       id="path4168"
       inkscape:connector-curvature="0" />
    <path
       style="color:#000000;clip-rule:nonzero;display:inline;overflow:visible;visibility:visible;opacity:1;isolation:auto;mix-blend-mode:normal;color-interpolation:sRGB;color-interpolation-filters:linearRGB;solid-color:#000000;solid-opacity:1;fill:none;fill-opacity:1;fill-rule:evenodd;stroke:#000000;stroke-width:10;stroke-linecap:butt;stroke-linejoin:miter;stroke-miterlimit:4;stroke-dasharray:none;stroke-dashoffset:0;stroke-opacity:1;color-rendering:auto;image-rendering:auto;shape-rendering:auto;text-rendering:auto;enable-background:accumulate"
       d="m 1830.2739,3981.0027 c 0,0 15.6249,-2.1429 34.3749,0.5357 18.75,2.6786 35.8929,10.3571 35.8929,10.3571"
       id="path4170"
       inkscape:connector-curvature="0"
       sodipodi:nodetypes="csc" />
    <path
       style="color:#000000;clip-rule:nonzero;display:inline;overflow:visible;visibility:visible;opacity:1;isolation:auto;mix-blend-mode:normal;color-interpolation:sRGB;color-interpolation-filters:linearRGB;solid-color:#000000;solid-opacity:1;fill:none;fill-opacity:1;fill-rule:evenodd;stroke:#000000;stroke-width:10;stroke-linecap:butt;stroke-linejoin:miter;stroke-miterlimit:4;stroke-dasharray:none;stroke-dashoffset:0;stroke-opacity:1;color-rendering:auto;image-rendering:auto;shape-rendering:auto;text-rendering:auto;enable-background:accumulate"
       d="m 2498.0417,3564.0384 c 0,0 55,-49.2857 185,-107.5 130,-58.2143 222.8571,-79.6429 222.8571,-79.6429"
       id="path4172"
       inkscape:connector-curvature="0" />
    <path
       style="color:#000000;clip-rule:nonzero;display:inline;overflow:visible;visibility:visible;opacity:1;isolation:auto;mix-blend-mode:normal;color-interpolation:sRGB;color-interpolation-filters:linearRGB;solid-color:#000000;solid-opacity:1;fill:none;fill-opacity:1;fill-rule:evenodd;stroke:#000000;stroke-width:10;stroke-linecap:butt;stroke-linejoin:miter;stroke-miterlimit:4;stroke-dasharray:none;stroke-dashoffset:0;stroke-opacity:1;color-rendering:auto;image-rendering:auto;shape-rendering:auto;text-rendering:auto;enable-background:accumulate"
       d="m 2549.4703,3592.7884 c 0,0 1.0714,-16.9643 4.2857,-37.1429 3.2143,-20.1785 8.5714,-35.5357 8.5714,-35.5357"
       id="path4176"
       inkscape:connector-curvature="0"
       sodipodi:nodetypes="csc" />
    <path
       style="color:#000000;clip-rule:nonzero;display:inline;overflow:visible;visibility:visible;opacity:1;isolation:auto;mix-blend-mode:normal;color-interpolation:sRGB;color-interpolation-filters:linearRGB;solid-color:#000000;solid-opacity:1;fill:none;fill-opacity:1;fill-rule:evenodd;stroke:#000000;stroke-width:10;stroke-linecap:butt;stroke-linejoin:miter;stroke-miterlimit:4;stroke-dasharray:none;stroke-dashoffset:0;stroke-opacity:1;color-rendering:auto;image-rendering:auto;shape-rendering:auto;text-rendering:auto;enable-background:accumulate"
       d="m 5667.2408,2611.9365 c 16.5374,20.8283 31.6059,44.4724 33.0499,62.2127 3.5355,43.4365 -23.7386,67.6802 -65.6599,94.9543 -41.9214,27.2741 -70.7024,50.7537 -63.9166,86.468 6.7857,35.7143 14.2857,45.7143 25.7142,36.0714 11.4286,-9.6428 25.3572,-37.5 40.3572,-45.7143 15,-8.2143 77.1428,1.7857 95.7143,-13.2143 18.5714,-15 99.6157,-81.2885 101.636,-172.7073 2.0203,-91.4188 -48.4873,-150.0076 -70.7107,-171.7259 -22.2234,-21.7183 -52.5279,-16.1624 -63.1345,-14.1421 -10.6066,2.0203 -31.8199,10.8591 -31.8199,10.8591"
       id="path4254"
       transform="translate(-1485.1725,1170.9669)"
       inkscape:connector-curvature="0"
       sodipodi:nodetypes="csssssssssc" />
    <path
       style="color:#000000;clip-rule:nonzero;display:inline;overflow:visible;visibility:visible;opacity:1;isolation:auto;mix-blend-mode:normal;color-interpolation:sRGB;color-interpolation-filters:linearRGB;solid-color:#000000;solid-opacity:1;fill:none;fill-opacity:1;fill-rule:evenodd;stroke:#000000;stroke-width:10;stroke-linecap:butt;stroke-linejoin:miter;stroke-miterlimit:4;stroke-dasharray:none;stroke-dashoffset:0;stroke-opacity:1;color-rendering:auto;image-rendering:auto;shape-rendering:auto;text-rendering:auto;enable-background:accumulate"
       d="m 5607.8617,2522.1212 c 0,0 -4.0406,11.1117 3.0305,25.2538 3.1847,6.3695 21.202,24.0012 40.0558,45.3226"
       id="path4178"
       transform="translate(-1485.1725,1170.9669)"
       inkscape:connector-curvature="0"
       sodipodi:nodetypes="csc" />
    <path
       style="color:#000000;clip-rule:nonzero;display:inline;overflow:visible;visibility:visible;opacity:1;isolation:auto;mix-blend-mode:normal;color-interpolation:sRGB;color-interpolation-filters:linearRGB;solid-color:#000000;solid-opacity:1;fill:none;fill-opacity:1;fill-rule:evenodd;stroke:#000000;stroke-width:10;stroke-linecap:butt;stroke-linejoin:miter;stroke-miterlimit:4;stroke-dasharray:none;stroke-dashoffset:0;stroke-opacity:1;color-rendering:auto;image-rendering:auto;shape-rendering:auto;text-rendering:auto;enable-background:accumulate"
       d="m 2232.9464,4487.068 c 0,0 8.3337,6.0609 13.132,16.6675 4.7982,10.6066 4.0406,31.3148 3.283,39.901 -0.7576,8.5863 -6.0609,31.0622 -6.0609,31.0622"
       id="path4182"
       inkscape:connector-curvature="0" />
    <path
       style="color:#000000;clip-rule:nonzero;display:inline;overflow:visible;visibility:visible;opacity:1;isolation:auto;mix-blend-mode:normal;color-interpolation:sRGB;color-interpolation-filters:linearRGB;solid-color:#000000;solid-opacity:1;fill:none;fill-opacity:1;fill-rule:evenodd;stroke:#000000;stroke-width:10;stroke-linecap:butt;stroke-linejoin:miter;stroke-miterlimit:4;stroke-dasharray:none;stroke-dashoffset:0;stroke-opacity:1;color-rendering:auto;image-rendering:auto;shape-rendering:auto;text-rendering:auto;enable-background:accumulate"
       d="m 2240.8988,4633.6812 c 0,0 24.6429,35.7143 54.6429,70.7143 30,35 60.3571,65.7143 60.3571,65.7143"
       id="path4184"
       inkscape:connector-curvature="0" />
    <path
       style="color:#000000;clip-rule:nonzero;display:inline;overflow:visible;visibility:visible;opacity:1;isolation:auto;mix-blend-mode:normal;color-interpolation:sRGB;color-interpolation-filters:linearRGB;solid-color:#000000;solid-opacity:1;fill:none;fill-opacity:1;fill-rule:evenodd;stroke:#000000;stroke-width:10;stroke-linecap:butt;stroke-linejoin:miter;stroke-miterlimit:4;stroke-dasharray:none;stroke-dashoffset:0;stroke-opacity:1;color-rendering:auto;image-rendering:auto;shape-rendering:auto;text-rendering:auto;enable-background:accumulate"
       d="m 2610.4909,5087.6037 c 0,0 93.9442,-48.9924 154.0483,-86.3681 60.104,-37.3756 137.8858,-72.7309 179.302,-86.8731 41.4163,-14.1421 87.7719,-26.9313 96.7005,-30.8599 8.9285,-3.9285 26.7857,-16.7857 26.7857,-16.7857 0,0 -44.1892,46.6355 -79.5445,84.0111 -35.3554,37.3757 -94.9544,102.5305 -150.0077,132.8351 -55.0533,30.3045 -59.3764,27.9753 -85.0907,27.9753 -25.7142,0 -53.9285,-23.2143 -78.9285,-26.0715 -25,-2.8571 -63.2651,2.1368 -63.2651,2.1368 z"
       id="path4186"
       inkscape:connector-curvature="0" />
    <path
       style="color:#000000;clip-rule:nonzero;display:inline;overflow:visible;visibility:visible;opacity:1;isolation:auto;mix-blend-mode:normal;color-interpolation:sRGB;color-interpolation-filters:linearRGB;solid-color:#000000;solid-opacity:1;fill:none;fill-opacity:1;fill-rule:evenodd;stroke:#000000;stroke-width:10;stroke-linecap:butt;stroke-linejoin:miter;stroke-miterlimit:4;stroke-dasharray:none;stroke-dashoffset:0;stroke-opacity:1;color-rendering:auto;image-rendering:auto;shape-rendering:auto;text-rendering:auto;enable-background:accumulate"
       d="m 4644.0452,5423.9845 c 0,0 27.6619,45.4568 65.0376,94.9543 37.3756,49.4975 76.2665,100.5102 76.2665,100.5102"
       id="path4188"
       inkscape:connector-curvature="0"
       sodipodi:nodetypes="csc" />
    <path
       style="color:#000000;clip-rule:nonzero;display:inline;overflow:visible;visibility:visible;opacity:1;isolation:auto;mix-blend-mode:normal;color-interpolation:sRGB;color-interpolation-filters:linearRGB;solid-color:#000000;solid-opacity:1;fill:none;fill-opacity:1;fill-rule:evenodd;stroke:#000000;stroke-width:10;stroke-linecap:butt;stroke-linejoin:miter;stroke-miterlimit:4;stroke-dasharray:none;stroke-dashoffset:0;stroke-opacity:1;color-rendering:auto;image-rendering:auto;shape-rendering:auto;text-rendering:auto;enable-background:accumulate"
       d="m 3685.7982,5106.2915 c 0,0 -16.6675,23.7386 -48.9923,57.0736 -32.3249,33.3351 -53.7907,54.5483 -53.7907,54.5483"
       id="path4194"
       inkscape:connector-curvature="0" />
    <path
       style="color:#000000;clip-rule:nonzero;display:inline;overflow:visible;visibility:visible;opacity:1;isolation:auto;mix-blend-mode:normal;color-interpolation:sRGB;color-interpolation-filters:linearRGB;solid-color:#000000;solid-opacity:1;fill:none;fill-opacity:1;fill-rule:evenodd;stroke:#000000;stroke-width:10;stroke-linecap:butt;stroke-linejoin:miter;stroke-miterlimit:4;stroke-dasharray:none;stroke-dashoffset:0;stroke-opacity:1;color-rendering:auto;image-rendering:auto;shape-rendering:auto;text-rendering:auto;enable-background:accumulate"
       d="m 4001.4709,4455.7533 c 0,0 -135.8655,76.2665 -178.797,117.6827 -42.9315,41.4163 -59.2751,72.0309 -85.7037,108.1024 -26.4285,36.0714 -77.8571,96.4285 -77.8571,96.4285 0,0 63.9286,-68.2142 121.0714,-98.2142 57.1429,-30 110.3572,-55 168.9286,-72.1429 58.5714,-17.1429 77.8571,-13.9286 84.2857,-2.8571 6.4286,11.0714 0.9021,84.3458 -45.5649,165.158 -46.4671,80.8122 -52.0229,102.0254 -107.0762,149.5026 -55.0533,47.4772 -112.1269,68.1853 -112.1269,68.1853 0,0 71.7208,-3.0305 141.9264,-34.3452 70.2056,-31.3147 112.632,-60.6092 133.3401,-81.8224 20.7081,-21.2132 57.5787,-72.2259 57.5787,-72.2259 0,0 -8.5863,77.7818 -48.4873,152.5331 -39.901,74.7513 -78.7919,130.3096 -95.4594,152.0279 -16.6675,21.7183 -46.9721,51.0127 -46.9721,51.0127 0,0 69.7005,-10.6066 145.967,-52.5279 76.2665,-41.9213 136.1603,-81.784 166.8746,-113.2125 30.7143,-31.4286 70.7143,-91.0715 70.7143,-91.0715 0,0 -7.1429,55.3572 -28.2143,117.1429 -21.0714,61.7857 -57.5,135 -57.5,135 0,0 30,-30.3572 67.8571,-69.6429 37.8572,-39.2857 70,-66.4285 105.3572,-121.4285 35.3571,-55 70,-124.6429 70,-124.6429 0,0 32.8571,75.3571 56.7857,137.1429 23.9286,61.7857 36.7857,102.5 40.3571,116.7857 3.5715,14.2857 6.7857,43.9285 6.7857,43.9285 0,0 12.6249,-63.3367 23.2315,-163.8469 10.6066,-100.5102 13.637,-226.2742 13.637,-226.2742 0,0 16.6676,42.9315 52.0229,94.4493 35.3553,51.5178 54.0432,62.1244 75.7614,122.7335 21.7183,60.6092 30.8097,121.2183 30.8097,121.2183 0,0 13.637,-60.1041 15.6573,-158.5939 2.0204,-98.4899 -6.5659,-167.1803 -32.8299,-244.4569 -26.264,-77.2767 -39.396,-114.1473 -47.4772,-152.5331 -8.0812,-38.3858 -14.1421,-89.3985 -14.1421,-89.3985 0,0 48.4873,55.5584 88.3883,92.9341 39.9011,37.3756 149.2268,105.9112 242.7983,148.7684 93.5714,42.8571 215.7142,72.1428 215.7142,72.1428 0,0 -138.5714,-109.2857 -219.2857,-212.1428 -80.7142,-102.8572 -117.8571,-172.1429 -131.4285,-206.4286 -13.5715,-34.2857 -20.7143,-64.2857 -20.7143,-64.2857 0,0 277.1428,-48.5714 407.8571,-30.7143 130.7143,17.8571 267.1429,48.5714 328.5714,82.1428 61.4286,33.5715 110,85 110,85 0,0 -29.2857,-48.5714 -43.5714,-80.7142 -14.2857,-32.1429 -147.479,-227.1239 -222.2303,-318.0376 -74.7512,-90.9137 -197.9899,-219.2031 -317.1878,-303.0458 -119.198,-83.8426 -310.1169,-145.4619 -310.1169,-145.4619"
       id="path4196"
       inkscape:connector-curvature="0" />
    <path
       style="color:#000000;clip-rule:nonzero;display:inline;overflow:visible;visibility:visible;opacity:1;isolation:auto;mix-blend-mode:normal;color-interpolation:sRGB;color-interpolation-filters:linearRGB;solid-color:#000000;solid-opacity:1;fill:none;fill-opacity:1;fill-rule:evenodd;stroke:#000000;stroke-width:10;stroke-linecap:butt;stroke-linejoin:miter;stroke-miterlimit:4;stroke-dasharray:none;stroke-dashoffset:0;stroke-opacity:1;color-rendering:auto;image-rendering:auto;shape-rendering:auto;text-rendering:auto;enable-background:accumulate"
       d="m 5286.2559,3851.5384 c 0,0 148.5714,12.1428 298.5714,-46.4286 150,-58.5714 219.2857,-110 242.8572,-126.4286 23.5714,-16.4285 55,-37.1428 55,-37.1428 0,0 -87.8572,29.2857 -240,1.4286 -152.1429,-27.8572 -180,-44.2857 -229.2857,-70 -49.2858,-25.7143 -82.1429,-58.5715 -82.1429,-58.5715"
       id="path4228"
       inkscape:connector-curvature="0" />
    <path
       style="color:#000000;clip-rule:nonzero;display:inline;overflow:visible;visibility:visible;opacity:1;isolation:auto;mix-blend-mode:normal;color-interpolation:sRGB;color-interpolation-filters:linearRGB;solid-color:#000000;solid-opacity:1;fill:none;fill-opacity:1;fill-rule:evenodd;stroke:#000000;stroke-width:10;stroke-linecap:butt;stroke-linejoin:miter;stroke-miterlimit:4;stroke-dasharray:none;stroke-dashoffset:0;stroke-opacity:1;color-rendering:auto;image-rendering:auto;shape-rendering:auto;text-rendering:auto;enable-background:accumulate"
       d="m 5236.9702,3505.8241 c 0,0 96.4286,27.8572 222.1428,-12.1428 125.7143,-40 187.8572,-83.5715 187.8572,-83.5715 0,0 -98.5714,33.5715 -237.1429,2.1429 -138.5714,-31.4286 -258.5714,-81.4286 -368.5714,-169.2857 -110,-87.8572 -175.7143,-166.7857 -175.7143,-166.7857"
       id="path4230"
       inkscape:connector-curvature="0" />
    <path
       style="color:#000000;clip-rule:nonzero;display:inline;overflow:visible;visibility:visible;opacity:1;isolation:auto;mix-blend-mode:normal;color-interpolation:sRGB;color-interpolation-filters:linearRGB;solid-color:#000000;solid-opacity:1;fill:none;fill-opacity:1;fill-rule:evenodd;stroke:#000000;stroke-width:10;stroke-linecap:butt;stroke-linejoin:miter;stroke-miterlimit:4;stroke-dasharray:none;stroke-dashoffset:0;stroke-opacity:1;color-rendering:auto;image-rendering:auto;shape-rendering:auto;text-rendering:auto;enable-background:accumulate"
       d="m 4972.6845,3184.3955 c 0,0 137.1428,0 258.5714,-48.5714 121.4286,-48.5714 135.7143,-75.7143 193.5714,-117.8571 57.8572,-42.1429 78.5715,-67.1429 103.5715,-89.2857 25,-22.1429 50.7142,-42.8572 50.7142,-42.8572 0,0 -86.1519,56.7207 -256.8677,63.7918 -170.7157,7.071 -214.1523,-9.0914 -257.5889,-20.2031 -43.4365,-11.1117 -95.9645,-34.3452 -95.9645,-34.3452 0,0 124.2488,-137.3807 166.6752,-277.7919 42.4264,-140.4112 44.4467,-274.7615 51.5178,-338.4011 7.0711,-63.6396 29.2944,-139.401 29.2944,-139.401 0,0 -101.0152,135.3604 -178.797,210.1117 -77.7817,74.7513 -207.0812,156.5736 -207.0812,156.5736"
       id="path4232"
       inkscape:connector-curvature="0" />
    <path
       style="color:#000000;clip-rule:nonzero;display:inline;overflow:visible;visibility:visible;opacity:1;isolation:auto;mix-blend-mode:normal;color-interpolation:sRGB;color-interpolation-filters:linearRGB;solid-color:#000000;solid-opacity:1;fill:none;fill-opacity:1;fill-rule:evenodd;stroke:#000000;stroke-width:10;stroke-linecap:butt;stroke-linejoin:miter;stroke-miterlimit:4;stroke-dasharray:none;stroke-dashoffset:0;stroke-opacity:1;color-rendering:auto;image-rendering:auto;shape-rendering:auto;text-rendering:auto;enable-background:accumulate"
       d="m 4918.1843,2443.5295 c 0,0 29.2944,-54.5483 54.5483,-100.0051 25.2538,-45.4569 36.3654,-66.6701 42.4264,-83.8427 6.0609,-17.1726 11.1116,-43.4366 11.1116,-43.4366 0,0 -41.4162,81.8224 -168.6954,131.3199 -127.2792,49.4974 -193.9493,53.5381 -249.5077,46.467 -55.5584,-7.0711 -128.3526,-30.8727 -128.3526,-30.8727"
       id="path4234"
       inkscape:connector-curvature="0"
       sodipodi:nodetypes="csscssc" />
    <path
       style="color:#000000;clip-rule:nonzero;display:inline;overflow:visible;visibility:visible;opacity:1;isolation:auto;mix-blend-mode:normal;color-interpolation:sRGB;color-interpolation-filters:linearRGB;solid-color:#000000;solid-opacity:1;fill:none;fill-opacity:1;fill-rule:evenodd;stroke:#000000;stroke-width:10;stroke-linecap:butt;stroke-linejoin:miter;stroke-miterlimit:4;stroke-dasharray:none;stroke-dashoffset:0;stroke-opacity:1;color-rendering:auto;image-rendering:auto;shape-rendering:auto;text-rendering:auto;enable-background:accumulate"
       d="m 2245.3208,5459.3398 c 0,0 0,36.8706 -10.1016,79.8021 -10.1015,42.9314 -14.6472,53.538 -20.203,80.8122 -5.5559,27.2741 -12.6269,63.1345 -12.6269,63.1345 0,0 -4.0406,-67.1752 -10.1016,-109.0965 -6.0609,-41.9213 -27.7791,-148.4924 -27.7791,-148.4924"
       id="path4236"
       inkscape:connector-curvature="0" />
    <path
       style="color:#000000;clip-rule:nonzero;display:inline;overflow:visible;visibility:visible;opacity:1;isolation:auto;mix-blend-mode:normal;color-interpolation:sRGB;color-interpolation-filters:linearRGB;solid-color:#000000;solid-opacity:1;fill:none;fill-opacity:1;fill-rule:evenodd;stroke:#000000;stroke-width:10;stroke-linecap:butt;stroke-linejoin:miter;stroke-miterlimit:4;stroke-dasharray:none;stroke-dashoffset:0;stroke-opacity:1;color-rendering:auto;image-rendering:auto;shape-rendering:auto;text-rendering:auto;enable-background:accumulate"
       d="m 1993.3988,5317.9669 c 0,0 -251.4285,48.5715 -382.8571,134.2857 -131.4286,85.7143 -203.5714,131.4286 -271.4286,247.1429 -67.8571,115.7143 -75.7142,164.2857 -75.7142,164.2857 0,0 -12.8572,-85 28.5714,-202.8571 41.4286,-117.8572 80.7143,-192.8572 80.7143,-192.8572 0,0 -135.7143,83.5714 -223.5715,198.5714 -87.8571,115 -101.4285,139.2858 -112.1428,173.5715 -10.7143,34.2857 -12.1429,90 -12.1429,90 0,0 -33.5714,-68.5715 -48.5714,-141.4286 -15,-72.8571 -21.33931,-175.4464 -21.33931,-175.4464"
       id="path4238"
       inkscape:connector-curvature="0"
       sodipodi:nodetypes="csscscsscsc" />
    <path
       style="color:#000000;clip-rule:nonzero;display:inline;overflow:visible;visibility:visible;opacity:1;isolation:auto;mix-blend-mode:normal;color-interpolation:sRGB;color-interpolation-filters:linearRGB;solid-color:#000000;solid-opacity:1;fill:none;fill-opacity:1;fill-rule:evenodd;stroke:#000000;stroke-width:10;stroke-linecap:butt;stroke-linejoin:miter;stroke-miterlimit:4;stroke-dasharray:none;stroke-dashoffset:0;stroke-opacity:1;color-rendering:auto;image-rendering:auto;shape-rendering:auto;text-rendering:auto;enable-background:accumulate"
       d="m 1076.5743,5162.86 c 0,0 -80.8122,373.7565 -169.7056,577.8073 -88.8935,204.0508 -208.0915,344.462 -261.6295,398.0001 -53.5381,53.5381 -178.797,124.2487 -178.797,124.2487 0,0 44.4467,-35.3553 80.8122,-103.0355 36.3655,-67.6802 111.1167,-223.2437 152.533,-512.1473 41.4163,-288.9037 64.6498,-578.8174 64.6498,-578.8174 0,0 -110.1067,-241.4265 -188.8986,-532.3504 -78.7919,-290.9239 -94.9543,-533.3605 -94.9543,-533.3605 0,0 -57.1854,186.1905 -200.0426,381.9048 -142.8571,195.7143 -390.8966,371.6689 -390.8966,371.6689 0,0 145.4619,-114.1472 230.3148,-250.5178 84.8528,-136.3706 153.439,-282.5797 204.8676,-492.5797 51.4285,-210 123.5714,-547.1428 131.4285,-587.1428 7.8572,-40 22.1429,-90.7143 22.1429,-90.7143 0,0 -78.6268,128.9696 -201.8654,268.3706 -123.2386,139.4011 -326.2793,262.6397 -357.594,280.8224 -31.3147,18.1828 -147.4823,73.7411 -147.4823,73.7411 0,0 92.9341,-43.4365 189.9087,-160.6142 96.9746,-117.1777 202.033,-277.3199 304.8901,-494.4627 102.8572,-217.1429 224.4298,-575.2888 384.0339,-888.4361 159.6041,-313.1473 363.6549,-618.2133 595.99,-791.9596 232.3351,-173.7462 672.7616,-440.4265 1389.9699,-444.4671 717.2083,-4.0406 1025.0061,252.72 1175.0061,366.2914 150,113.5714 290.7143,280 437.8572,482.8571 147.1428,202.8571 222.1428,324.2857 275,402.8571 52.8571,78.5715 103.5714,141.4286 103.5714,141.4286"
       id="path4240"
       inkscape:connector-curvature="0" />
    <path
       style="color:#000000;clip-rule:nonzero;display:inline;overflow:visible;visibility:visible;opacity:1;isolation:auto;mix-blend-mode:normal;color-interpolation:sRGB;color-interpolation-filters:linearRGB;solid-color:#000000;solid-opacity:1;fill:none;fill-opacity:1;fill-rule:evenodd;stroke:#000000;stroke-width:10;stroke-linecap:butt;stroke-linejoin:miter;stroke-miterlimit:4;stroke-dasharray:none;stroke-dashoffset:0;stroke-opacity:1;color-rendering:auto;image-rendering:auto;shape-rendering:auto;text-rendering:auto;enable-background:accumulate"
       d="m 1311.9703,2276.5384 c 0,0 -217.1429,244.2857 -361.4286,525.7143 -144.2857,281.4286 -180,465.7143 -198.5714,550 -18.5714,84.2857 -47.1429,265.7143 -47.1429,265.7143 0,0 54.2858,-241.4286 121.4286,-415.7143 67.1429,-174.2857 202.8572,-405.7143 308.5714,-557.1429 105.7143,-151.4285 211.4286,-269.9999 211.4286,-269.9999"
       id="path4242"
       inkscape:connector-curvature="0" />
    <path
       style="color:#000000;clip-rule:nonzero;display:inline;overflow:visible;visibility:visible;opacity:1;isolation:auto;mix-blend-mode:normal;color-interpolation:sRGB;color-interpolation-filters:linearRGB;solid-color:#000000;solid-opacity:1;fill:none;fill-opacity:1;fill-rule:evenodd;stroke:#000000;stroke-width:10;stroke-linecap:butt;stroke-linejoin:miter;stroke-miterlimit:4;stroke-dasharray:none;stroke-dashoffset:0;stroke-opacity:1;color-rendering:auto;image-rendering:auto;shape-rendering:auto;text-rendering:auto;enable-background:accumulate"
       d="m 4047.4328,2427.367 c 0,0 33.3351,167.6853 27.2742,197.9899 -6.0609,30.3046 -36.3655,56.5686 -114.1473,155.5635 -77.7817,98.995 -133.3401,189.9087 -216.1726,342.4417 -82.8325,152.533 -129.2995,358.6042 -129.2995,358.6042 0,0 88.8934,-174.7564 181.8274,-271.7311 92.9341,-96.9746 183.8478,-160.6142 240.4163,-205.0609 56.5686,-44.4467 87.8833,-98.995 87.8833,-98.995 0,0 8.1842,208.9305 -4.673,360.3591 -12.8571,151.4286 -5.7142,230 4.2858,321.4286 10,91.4285 57.8571,226.4285 57.8571,226.4285 0,0 -9.9927,-168.7845 21.322,-318.2871 31.3147,-149.5026 80.8122,-286.8833 80.8122,-286.8833"
       id="path4244"
       inkscape:connector-curvature="0" />
  </g>
</svg>
